Coordinates
version=1
nRows=15
nColumns=46
inDegrees=yes

Units are S.I. units (second, meters, Newtons, ...)
Angles are in degrees.

endheader
time	pelvis_tilt	pelvis_list	pelvis_rotation	pelvis_tx	pelvis_ty	pelvis_tz	bb_angle	bb_tx	bb_ty	bb_tz	hip_flexion_r	hip_adduction_r	hip_rotation_r	knee_angle_r	knee_angle_r_beta	ankle_angle_r	subtalar_angle_r	mtp_angle_r	crank_angle_r	hip_flexion_l	hip_adduction_l	hip_rotation_l	knee_angle_l	knee_angle_l_beta	ankle_angle_l	subtalar_angle_l	mtp_angle_l	crank_angle_l	lumbar_extension	lumbar_bending	lumbar_rotation	arm_flex_r	arm_add_r	arm_rot_r	elbow_flex_r	pro_sup_r	wrist_flex_r	wrist_dev_r	arm_flex_l	arm_add_l	arm_rot_l	elbow_flex_l	pro_sup_l	wrist_flex_l	wrist_dev_l
      0.00000000	    -10.96221293	     -0.37381445	      1.03617588	      0.05677365	      1.15188662	     -0.24224172	      0.00000000	      0.50000000	      0.00000000	      0.25000000	     72.30299739	     -1.39908036	      5.31395857	     76.58814780	      1.33671535	      3.11091253	    -10.03838321	      0.00000000	      0.00000000	     46.56284379	     -3.57915339	      1.77488719	     76.37846362	      1.33305567	     15.89181785	     -7.95402387	      0.00000000	      0.00000000	    -60.40932456	      0.51981807	     -0.26760016	     87.82249624	    -14.29209037	     36.91540488	     48.58310819	     43.43428668	      0.00000000	      0.00000000	     89.02563762	    -15.60738129	     40.46071127	     45.01622495	     41.56602598	      0.00000000	      0.00000000
      0.00500000	    -10.96952290	     -0.38948813	      1.04358260	      0.05675124	      1.15188101	     -0.24225445	      0.00000000	      0.50000000	      0.00000000	      0.25000000	     72.30399543	     -1.40108101	      5.29237317	     76.58305363	      1.33662644	      3.13400811	    -10.04771424	      0.00000000	      0.00000000	     46.57451209	     -3.59188161	      1.78976540	     76.37766547	      1.33304174	     15.89408760	     -7.92775779	      0.00000000	      0.00000000	    -60.40888928	      0.53711606	     -0.23254012	     87.83662795	    -14.39388909	     37.04412913	     48.68537943	     43.49416969	      0.00000000	      0.00000000	     89.03113764	    -15.60985853	     40.52986359	     45.02361329	     41.65051471	      0.00000000	      0.00000000
      0.01000000	    -10.96701942	     -0.41522093	      0.99303737	      0.05673412	      1.15189927	     -0.24216447	      0.00000000	      0.50000000	      0.00000000	      0.25000000	     72.28782234	     -1.33125288	      5.28761956	     76.55895519	      1.33620584	      3.14035914	    -10.05947000	      0.00000000	      0.00000000	     46.56657252	     -3.66824665	      1.75647702	     76.37961558	      1.33307577	     15.91191970	     -7.94297448	      0.00000000	      0.00000000	    -60.38966855	      0.47117240	      0.02505400	     87.66136789	    -14.55493376	     36.47252187	     48.96540346	     43.42407535	      0.00000000	      0.00000000	     89.08100635	    -15.04707846	     40.34806047	     44.38490623	     41.60074338	      0.00000000	      0.00000000
      0.01500000	    -10.77964455	     -0.43451932	      0.97028943	      0.05676166	      1.15218759	     -0.24197601	      0.00000000	      0.50000000	      0.00000000	      0.25000000	     72.08849391	     -1.28548970	      5.26840905	     76.60357017	      1.33698452	      3.16454387	    -10.17367182	      0.00000000	      0.00000000	     46.34950284	     -3.70637563	      1.79118791	     76.35971104	      1.33272837	     15.96625814	     -7.87077753	      0.00000000	      0.00000000	    -60.70635993	      0.79019267	     -0.01756184	     87.86595532	    -14.21055114	     36.46507066	     49.29379693	     43.49401337	      0.00000000	      0.00000000	     88.97472245	    -15.70029892	     39.93630599	     45.04454773	     41.75734890	      0.00000000	      0.00000000
      0.02000000	    -10.97740596	     -0.64340660	      0.82449109	      0.05683350	      1.15139625	     -0.24144340	      0.00000000	      0.50000000	      0.00000000	      0.25000000	     72.29211876	     -0.97302225	      5.19225365	     76.57990263	      1.33657144	      3.24995482	    -10.06936801	      0.00000000	      0.00000000	     46.84420242	     -3.96213275	      1.78794666	     76.49267743	      1.33504907	     15.51203601	     -5.87756381	      0.00000000	      0.00000000	    -60.48913117	      0.93610742	     -0.02447867	     87.99956183	    -13.83542651	     36.89792285	     49.03969110	     43.50209842	      0.00000000	      0.00000000	     88.98638672	    -15.59424312	     40.35960697	     44.92891422	     41.78270733	      0.00000000	      0.00000000
      0.02500000	    -10.83127191	     -0.89331772	      0.85775514	      0.05707063	      1.15071371	     -0.24150321	      0.00000000	      0.50000000	      0.00000000	      0.25000000	     72.27999269	     -1.08819902	      4.84870901	     76.71007700	      1.33884341	      3.16479104	     -9.68702116	      0.00000000	      0.00000000	     46.76699693	     -3.30886002	      2.94053509	     76.64727524	      1.33774732	     15.23862672	     -6.19073549	      0.00000000	      0.00000000	    -60.55008692	      1.21734229	      0.05681003	     88.05702502	    -13.61942430	     37.11923415	     48.90859736	     43.50796292	      0.00000000	      0.00000000	     88.96351049	    -15.57747123	     40.46974849	     44.70891652	     41.75799379	      0.00000000	      0.00000000
      0.03000000	    -10.95224142	     -0.46937192	      0.91970354	      0.05663594	      1.15183557	     -0.24202966	      0.00000000	      0.50000000	      0.00000000	      0.25000000	     72.29065083	     -1.25683750	      5.24086893	     76.61968499	      1.33726577	      3.29128995	    -10.03749869	      0.00000000	      0.00000000	     46.53707266	     -3.78978225	      1.75734614	     76.37822786	      1.33305155	     16.12154976	     -7.61073078	      0.00000000	      0.00000000	    -60.40708068	      0.48622983	     -0.18699157	     87.86623638	    -14.25872191	     37.10143011	     48.61965290	     43.46911881	      0.00000000	      0.00000000	     89.00082319	    -15.66437725	     40.57891187	     44.96287763	     41.81247634	      0.00000000	      0.00000000
      0.03500000	    -10.95064363	     -0.39917434	      0.93398577	      0.05662991	      1.15190821	     -0.24208141	      0.00000000	      0.50000000	      0.00000000	      0.25000000	     72.28435238	     -1.30824414	      5.30028481	     76.61331510	      1.33715460	      3.32833671	     -9.96048184	      0.00000000	      0.00000000	     46.54141868	     -3.70899733	      1.68951109	     76.36253550	      1.33277767	     15.91580187	     -7.90229700	      0.00000000	      0.00000000	    -60.40450361	      0.44951742	     -0.24776531	     87.85727463	    -14.36794813	     37.23113013	     48.60977803	     43.50198593	      0.00000000	      0.00000000	     89.03464817	    -15.76476902	     40.79749651	     44.98532027	     41.87335227	      0.00000000	      0.00000000
      0.04000000	    -10.93152441	     -0.36626432	      0.91790066	      0.05659742	      1.15196375	     -0.24207390	      0.00000000	      0.50000000	      0.00000000	      0.25000000	     72.26139024	     -1.30482145	      5.35477456	     76.60294033	      1.33697353	      3.31831357	     -9.97556156	      0.00000000	      0.00000000	     46.50427197	     -3.68837327	      1.66094339	     76.34569200	      1.33248370	     15.91325393	     -7.89873432	      0.00000000	      0.00000000	    -60.44008573	      0.44029483	     -0.26981923	     87.84697841	    -14.28141844	     37.02574531	     48.64355007	     43.56510841	      0.00000000	      0.00000000	     89.03889312	    -15.78389519	     40.73719726	     44.97427570	     42.18497912	      0.00000000	      0.00000000
      0.04500000	    -10.94269375	     -0.41164431	      0.93620679	      0.05655939	      1.15198280	     -0.24211418	      0.00000000	      0.50000000	      0.00000000	      0.25000000	     72.26986718	     -1.33356251	      5.26186341	     76.59479191	      1.33683131	      3.30406912	     -9.92069749	      0.00000000	      0.00000000	     46.51730182	     -3.69868051	      1.75165567	     76.33073848	      1.33222271	     15.96097271	     -7.84471568	      0.00000000	      0.00000000	    -60.41965994	      0.44105566	     -0.27608044	     87.85707498	    -14.29195431	     36.91223877	     48.57227695	     43.60130867	      0.00000000	      0.00000000	     89.05028697	    -15.68101066	     40.63173688	     44.77668768	     42.37141107	      0.00000000	      0.00000000
      0.05000000	    -10.93978285	     -0.36303950	      0.92200284	      0.05652275	      1.15193667	     -0.24209076	      0.00000000	      0.50000000	      0.00000000	      0.25000000	     72.27796471	     -1.32169369	      5.35227307	     76.60293981	      1.33697352	      3.33099886	     -9.92807606	      0.00000000	      0.00000000	     46.51334948	     -3.67449980	      1.68285815	     76.35296738	      1.33261067	     15.97087083	     -7.86183062	      0.00000000	      0.00000000	    -60.42795181	      0.43937640	     -0.26543972	     87.84245482	    -14.29064156	     36.98876907	     48.63532229	     43.68191715	      0.00000000	      0.00000000	     89.04994276	    -15.74354281	     40.66776548	     44.82569791	     42.61737278	      0.00000000	      0.00000000
      0.05500000	    -10.92473862	     -0.35668052	      0.92355758	      0.05648980	      1.15197271	     -0.24210350	      0.00000000	      0.50000000	      0.00000000	      0.25000000	     72.26804605	     -1.33706397	      5.34700109	     76.60238617	      1.33696385	      3.30919391	     -9.91622775	      0.00000000	      0.00000000	     46.49166544	     -3.66693761	      1.67748972	     76.34597696	      1.33248867	     15.98834242	     -7.84716776	      0.00000000	      0.00000000	    -60.44397052	      0.43760671	     -0.26492161	     87.86772919	    -14.31059316	     37.03177411	     48.60554652	     43.69430728	      0.00000000	      0.00000000	     89.04874217	    -15.70804905	     40.57922423	     44.80449484	     42.63331818	      0.00000000	      0.00000000
      0.06000000	    -10.91973165	     -0.35428085	      0.93936068	      0.05646842	      1.15197267	     -0.24214645	      0.00000000	      0.50000000	      0.00000000	      0.25000000	     72.26634269	     -1.36394971	      5.33830326	     76.60611046	      1.33702885	      3.30704990	     -9.90654591	      0.00000000	      0.00000000	     46.48598093	     -3.64780500	      1.69209439	     76.34519756	      1.33247507	     15.99317429	     -7.85652172	      0.00000000	      0.00000000	    -60.44523413	      0.45445629	     -0.28977740	     87.86683972	    -14.26678535	     37.03367062	     48.57644067	     43.68835168	      0.00000000	      0.00000000	     89.04315114	    -15.69979885	     40.53002619	     44.78442975	     42.68012360	      0.00000000	      0.00000000
      0.06500000	    -10.94939855	     -0.36177606	      0.92743797	      0.05642361	      1.15190675	     -0.24213113	      0.00000000	      0.50000000	      0.00000000	      0.25000000	     72.30609630	     -1.35126496	      5.33183190	     76.60395908	      1.33699131	      3.29405965	     -9.87704956	      0.00000000	      0.00000000	     46.52331736	     -3.65989226	      1.69132940	     76.35504805	      1.33264699	     16.00815959	     -7.84977625	      0.00000000	      0.00000000	    -60.39925620	      0.43149709	     -0.18113461	     87.83450231	    -14.48218508	     37.10850484	     48.77245493	     43.64730233	      0.00000000	      0.00000000	     89.06297388	    -15.46095385	     40.48930437	     44.49194766	     42.57622200	      0.00000000	      0.00000000
      0.07000000	    -10.89156842	     -0.34274411	      0.93072745	      0.05641327	      1.15202638	     -0.24213853	      0.00000000	      0.50000000	      0.00000000	      0.25000000	     72.25106133	     -1.37575487	      5.32930302	     76.60693987	      1.33704333	      3.24206991	     -9.88909756	      0.00000000	      0.00000000	     46.44976371	     -3.65336256	      1.66130293	     76.33609709	      1.33231623	     15.99536699	     -7.84483841	      0.00000000	      0.00000000	    -60.48488544	      0.42493631	     -0.18112311	     87.82206187	    -14.44437039	     36.91287089	     48.81149730	     43.60828293	      0.00000000	      0.00000000	     89.07771969	    -15.45760903	     40.43687868	     44.59671893	     42.56738649	      0.00000000	      0.00000000
